<svg xmlns="http://www.w3.org/2000/svg" version="1.1" xmlns:xlink="http://www.w3.org/1999/xlink" xmlns:svgjs="http://svgjs.com/svgjs" width="1440" height="560" preserveAspectRatio="none" viewBox="0 0 1440 560"><g mask="url(&quot;#SvgjsMask1511&quot;)" fill="none"><path d="M1440 0L1167.15 0L1440 235.03z" fill="rgba(255, 255, 255, .1)"></path><path d="M1167.15 0L1440 235.03L1440 386.11L1063.38 0z" fill="rgba(255, 255, 255, .075)"></path><path d="M1063.38 0L1440 386.11L1440 431.20000000000005L1059.64 0z" fill="rgba(255, 255, 255, .05)"></path><path d="M1059.6399999999999 0L1440 431.20000000000005L1440 442.58000000000004L843.0899999999999 0z" fill="rgba(255, 255, 255, .025)"></path><path d="M0 560L166.03 560L0 315.47z" fill="rgba(0, 0, 0, .1)"></path><path d="M0 315.47L166.03 560L661.25 560L0 179.26000000000002z" fill="rgba(0, 0, 0, .075)"></path><path d="M0 179.26L661.25 560L838.48 560L0 179.07999999999998z" fill="rgba(0, 0, 0, .05)"></path><path d="M0 179.07999999999998L838.48 560L1138.38 560L0 134.29z" fill="rgba(0, 0, 0, .025)"></path></g><defs><mask id="SvgjsMask1511"><rect width="1440" height="560" fill="#ffffff"></rect></mask></defs></svg>